<svg version="1.1" id="Layer_1" xmlns="http://www.w3.org/2000/svg" xmlns:xlink="http://www.w3.org/1999/xlink" x="0px" y="0px"
	 width="100%" viewBox="0 0 864 640" enable-background="new 0 0 864 640" xml:space="preserve">
<path fill="#000000" opacity="1.000000" stroke="none" 
	d="
M480.002502,216.994781 
	C475.107697,212.590668 471.694702,207.433701 468.206757,202.360214 
	C466.728851,200.210480 464.976257,199.258606 462.375336,199.327698 
	C457.880829,199.447067 453.368744,199.542252 448.885681,199.278946 
	C444.182678,199.002777 439.969299,199.657013 436.584778,203.283920 
	C434.840515,205.153122 432.800598,205.550552 431.006073,203.427902 
	C427.582428,199.378311 422.983490,199.754395 418.304993,199.188828 
	C406.911865,197.811508 398.551910,200.613586 392.514832,211.409515 
	C388.428711,218.716660 380.758667,223.539230 374.647095,229.428070 
	C371.203186,232.746460 369.387665,229.166779 367.131317,227.630966 
	C364.338104,225.729752 365.146393,223.561401 367.231049,221.930359 
	C374.937378,215.900848 374.248474,209.010773 370.726685,200.816406 
	C360.706696,177.502106 349.118225,155.290283 329.225861,138.705429 
	C316.464142,128.065613 302.746246,119.033676 285.644684,116.800957 
	C281.963013,116.320297 278.372101,116.255852 274.723694,116.821091 
	C272.644440,117.143234 270.479370,117.918976 268.134369,116.049355 
	C269.389496,107.196419 274.420471,101.048012 282.460815,97.326927 
	C295.241425,91.412041 308.645294,91.015205 322.000214,94.496536 
	C351.273010,102.127312 376.015900,116.649117 393.370117,142.325577 
	C402.082306,155.215759 409.409698,168.816818 415.869934,182.906387 
	C417.545837,186.561478 419.148956,189.316025 423.805389,188.774216 
	C426.575562,188.451889 428.306091,190.736298 430.112579,192.383438 
	C432.421448,194.488647 434.449219,195.088150 436.994019,192.683990 
	C439.671844,190.154190 442.579529,188.084167 446.725006,188.549759 
	C449.461548,188.857117 450.053406,186.272385 450.960388,184.331375 
	C458.231628,168.770737 466.192749,153.631683 476.250153,139.612381 
	C489.913727,120.566429 507.967255,107.641106 529.750488,99.450874 
	C541.711792,94.953583 553.790161,91.672989 566.737122,92.647850 
	C574.151611,93.206131 581.175110,94.973709 587.647217,98.667252 
	C591.174500,100.680244 594.099487,103.445068 596.237061,106.880783 
	C597.977661,109.678452 600.502014,112.990891 598.711731,116.058128 
	C597.103149,118.814201 593.569397,116.624062 590.874939,116.465622 
	C576.009033,115.591484 563.256470,121.422890 551.145203,129.136688 
	C526.857239,144.605957 511.713165,167.387070 500.324799,193.107117 
	C498.238068,197.819901 496.633545,202.744644 494.602081,207.483978 
	C492.959381,211.316467 493.519348,214.519348 496.500061,217.401428 
	C497.574219,218.440018 498.511261,219.623688 499.480408,220.766983 
	C501.295990,222.908752 503.704193,224.798218 500.291840,227.785339 
	C497.410706,230.307449 495.158630,232.348282 491.685272,228.416382 
	C488.167206,224.433762 484.089600,220.945419 480.002502,216.994781 
z"/>
<path fill="#000000" opacity="1.000000" stroke="none" 
	d="
M483.336426,553.736206 
	C482.142059,557.408203 479.764130,557.994690 476.420532,558.535645 
	C465.199463,560.351257 458.345917,556.607788 455.034302,545.329163 
	C453.229767,539.183350 449.391296,533.657593 446.770691,527.719604 
	C445.289001,524.362183 443.225769,522.695190 439.498566,523.159119 
	C438.022919,523.342773 436.503540,523.183044 435.004242,523.165222 
	C434.338379,523.157288 433.600006,523.293579 433.018402,523.058228 
	C426.344818,520.357300 430.950165,514.679565 429.850403,510.493134 
	C429.141815,507.795868 430.182800,505.500763 433.732391,505.697235 
	C435.060669,505.770782 436.397247,505.688171 437.730042,505.687622 
	C445.609772,505.684387 445.730865,505.679749 446.111664,513.655640 
	C446.255859,516.676453 447.470367,518.207153 450.347198,517.618713 
	C458.359863,515.979797 461.579926,520.393250 463.847626,527.143799 
	C465.665710,532.556030 467.799408,537.974915 471.576111,543.658813 
	C475.017578,535.806946 478.134064,528.854553 481.102264,521.839355 
	C482.152557,519.357056 483.312103,517.675293 486.457520,517.634216 
	C497.603729,517.488586 509.052795,515.317749 519.816895,517.190918 
	C534.983643,519.830322 549.647400,515.496460 564.535645,516.778931 
	C569.347778,517.193481 574.174622,517.378845 578.804871,518.882019 
	C581.260986,519.679382 583.253113,521.065796 584.177734,523.685974 
	C586.032715,528.942749 585.181396,530.247986 579.597412,530.321594 
	C574.990845,530.382324 570.540100,530.497986 566.059937,528.306946 
	C561.147888,525.904663 552.578308,527.150024 549.650269,529.668701 
	C550.707275,532.045471 552.897705,531.617126 554.806946,531.643921 
	C561.136169,531.732727 567.487793,531.410950 573.791748,531.832336 
	C583.712097,532.495422 587.683105,537.078186 587.298523,546.605652 
	C587.010803,553.734131 583.972839,557.378662 576.862488,558.311890 
	C565.765320,559.768494 554.620728,559.503113 543.484070,558.602173 
	C541.500305,558.441711 539.497864,558.499512 537.517029,558.316467 
	C524.741821,557.135498 512.055725,559.691711 499.295929,559.190552 
	C493.116547,558.947876 487.604950,557.724792 485.578217,550.776917 
	C484.058258,551.126770 484.244110,552.639709 483.336426,553.736206 
M507.928162,548.656128 
	C511.243866,548.586853 514.581909,548.725220 517.867065,548.371582 
	C519.890076,548.153931 522.669617,547.890198 522.622253,545.010498 
	C522.571289,541.915527 519.724426,541.665161 517.473022,541.498962 
	C514.171326,541.255432 510.836334,541.327637 507.521515,541.440918 
	C504.955750,541.528564 501.975342,542.087219 501.723480,545.011108 
	C501.431915,548.395386 504.587769,548.404968 507.928162,548.656128 
M564.887878,543.400330 
	C556.774536,543.400330 548.661194,543.400330 540.547852,543.400330 
	C540.476318,543.894287 540.404846,544.388306 540.333374,544.882263 
	C546.408813,542.480530 549.742676,549.111755 555.138245,548.611206 
	C560.223145,548.139343 565.861572,550.440369 570.500061,546.451965 
	C569.375061,543.836182 567.596680,543.550171 564.887878,543.400330 
M497.066101,532.397583 
	C505.480957,530.927795 513.879761,531.852844 522.396118,532.934143 
	C523.194885,528.981750 520.939758,528.126282 518.117554,527.395874 
	C509.932343,525.277405 502.981567,530.304138 495.334839,531.295959 
	C494.439026,531.412170 495.676239,532.324036 497.066101,532.397583 
z"/>
<path fill="#000000" opacity="1.000000" stroke="none" 
	d="
M413.676880,516.952637 
	C420.545837,517.757080 426.579163,519.090820 430.288147,525.336243 
	C431.962555,528.155701 435.158508,526.867065 437.683197,526.911133 
	C446.073242,527.057617 446.100739,526.973755 446.149841,535.479065 
	C446.185425,541.642212 446.060455,547.807190 446.164398,553.968689 
	C446.217987,557.144958 444.984711,558.446045 441.736023,558.378784 
	C434.742706,558.233887 427.741333,558.225708 420.749054,558.398254 
	C417.426788,558.480286 416.413025,557.189636 416.544220,553.977295 
	C416.761566,548.655701 416.681519,543.316895 416.574036,537.988403 
	C416.459534,532.311890 414.729401,530.506958 409.171661,530.148621 
	C407.019379,530.009888 404.835144,530.021240 402.688232,530.215637 
	C397.992401,530.640808 395.432037,533.271179 395.349915,538.033813 
	C395.260895,543.196472 395.150879,548.367004 395.339172,553.523499 
	C395.475433,557.255188 393.934967,558.694824 390.319550,558.370911 
	C388.666992,558.222900 386.977539,558.213379 385.326965,558.371643 
	C381.675995,558.721619 379.002075,557.974792 379.627472,552.511597 
	C373.755554,558.615479 367.104431,559.468628 360.162994,559.155823 
	C351.106171,558.747681 341.760956,560.791870 333.187042,556.090698 
	C332.412109,555.665833 331.495697,555.497742 330.904480,556.247681 
	C327.862457,560.106140 323.927734,557.874756 320.166199,558.167908 
	C319.934845,557.145874 319.604309,556.363770 319.603333,555.581238 
	C319.584686,540.588989 319.713776,525.595581 319.545868,510.605377 
	C319.499573,506.471771 320.985443,505.002380 325.048737,505.039703 
	C329.208160,505.078003 330.611572,506.839264 330.436310,510.840088 
	C330.309143,513.743286 329.645050,516.834045 331.303375,519.420471 
	C347.615631,516.181580 363.679871,513.767883 379.710114,522.214905 
	C379.710114,518.183716 379.769196,513.929321 379.688568,509.677460 
	C379.637939,507.007080 380.663177,505.694977 383.470642,505.690582 
	C397.807343,505.668243 395.030884,504.666870 395.318085,516.154114 
	C395.351044,517.473083 395.322540,518.793701 395.322540,520.988525 
	C401.175873,517.459961 407.081329,516.520630 413.676880,516.952637 
M363.544891,530.846252 
	C359.216125,528.282471 354.460083,529.575073 349.885071,529.421997 
	C347.100800,529.328796 344.221710,530.266052 343.564453,533.227844 
	C342.752930,536.885071 341.996735,540.986450 344.575317,544.237061 
	C347.326172,547.704895 361.572235,547.562073 364.165466,543.857361 
	C366.148407,541.024597 368.386993,540.573669 371.314362,540.680054 
	C373.302673,540.752319 375.299927,540.689819 377.288971,540.597290 
	C378.904480,540.522217 379.604797,539.538635 379.607849,537.961426 
	C379.610840,536.406250 378.960480,535.352783 377.347778,535.252258 
	C375.195923,535.118225 373.018555,534.938293 370.881866,535.122620 
	C367.697662,535.397339 365.369598,534.452454 363.544891,530.846252 
z"/>
<path fill="#000000" opacity="1.000000" stroke="none" 
	d="
M432.423676,387.997925 
	C420.792694,379.635681 409.524048,371.401062 398.271423,363.144623 
	C396.106537,361.556152 395.508545,359.637634 396.855774,357.087372 
	C399.106720,352.826385 401.252014,348.504578 403.287628,344.136536 
	C404.756775,340.984070 406.740570,340.605194 409.699890,342.146179 
	C416.039673,345.447479 422.560944,348.408173 428.831177,351.832062 
	C432.244873,353.696136 435.114136,353.857788 438.597229,351.905914 
	C444.825714,348.415588 451.366455,345.487305 457.675507,342.133728 
	C460.898163,340.420685 462.897736,341.042877 464.400269,344.353729 
	C466.254181,348.438934 468.212524,352.486877 470.345337,356.432251 
	C472.129883,359.733307 471.265991,361.869751 468.330444,363.998260 
	C458.371765,371.219116 448.562378,378.645569 438.667572,385.955048 
	C436.945770,387.227020 435.209320,388.649719 432.423676,387.997925 
z"/>
<path fill="#000000" opacity="1.000000" stroke="none" 
	d="
M432.121460,464.332123 
	C427.848633,450.996002 423.731140,437.986542 419.569275,424.991302 
	C418.914459,422.946594 418.617096,420.412292 416.652130,419.330048 
	C409.235382,415.245270 407.729431,408.428955 407.306763,400.832428 
	C407.004456,395.398529 405.293091,390.077179 405.668060,384.363953 
	C410.013763,382.879730 413.332092,383.538879 416.146545,387.407349 
	C420.553802,393.465118 425.264008,399.305054 429.920837,405.177856 
	C433.554230,409.759979 434.110260,409.730408 437.611237,405.245239 
	C442.427643,399.074860 447.247955,392.907349 452.025513,386.706970 
	C453.406342,384.914856 454.904480,383.773499 457.376282,383.612091 
	C461.476471,383.344391 462.714630,384.900757 462.072906,388.868286 
	C460.985748,395.589874 460.084381,402.347443 459.336792,409.115479 
	C458.986725,412.284698 457.242554,414.363953 454.851074,415.956665 
	C450.568542,418.808685 448.597015,422.874084 447.173950,427.705292 
	C443.695984,439.512970 439.806580,451.201904 435.894714,462.875641 
	C435.506775,464.033356 435.626587,468.579376 432.121460,464.332123 
z"/>
<path fill="#000000" opacity="1.000000" stroke="none" 
	d="
M486.529449,302.450684 
	C480.948639,296.021362 475.691528,289.773438 470.216003,283.723145 
	C467.403229,280.615112 467.273682,277.852661 469.607635,274.367188 
	C476.372803,264.264313 482.969360,254.046600 489.498962,243.789215 
	C491.375214,240.841751 493.016815,240.081680 495.605316,242.973297 
	C498.268982,245.948883 501.071991,248.815521 503.986145,251.546173 
	C506.360382,253.770905 506.364288,255.832336 504.786591,258.582153 
	C501.109283,264.991455 501.224518,265.057587 506.312531,270.660400 
	C502.982147,272.053619 499.603638,271.643127 496.534180,271.265839 
	C489.983978,270.460785 488.102509,275.383667 485.274628,279.388062 
	C482.732758,282.987457 485.615326,285.293304 487.198334,287.846436 
	C489.567261,291.667236 492.139801,295.361145 494.572723,299.143158 
	C495.785919,301.029083 497.779449,302.861694 494.783417,305.046722 
	C492.173767,306.949921 490.000549,307.170898 488.079468,304.215637 
	C487.720367,303.663208 487.205627,303.211914 486.529449,302.450684 
z"/>
<path fill="#000000" opacity="1.000000" stroke="none" 
	d="
M396.582703,284.501892 
	C390.708771,291.337067 385.010345,297.846527 379.437134,304.461456 
	C377.446716,306.823914 375.620605,307.064453 373.030914,305.315979 
	C370.152374,303.372498 371.196259,301.589355 372.618134,299.494476 
	C375.608673,295.088287 378.550781,290.648651 381.468781,286.193909 
	C384.751678,281.182037 379.879700,271.824066 373.764099,271.412354 
	C369.821472,271.146942 365.828186,271.815857 361.880951,270.956787 
	C361.880951,270.472412 361.765808,269.962067 361.897522,269.887482 
	C367.610291,266.651489 366.151581,262.777313 362.983215,258.671234 
	C360.929108,256.009277 361.124054,253.721909 363.820618,251.358444 
	C367.317566,248.293457 370.471863,244.838745 373.806641,241.585648 
	C374.128296,241.271881 374.682678,241.196716 375.111053,241.018250 
	C377.255890,241.829758 377.961517,243.847153 379.025940,245.452148 
	C385.280426,254.883286 391.295319,264.477081 397.709290,273.796997 
	C400.476990,277.818604 400.536102,281.036957 396.582703,284.501892 
z"/>
<path fill="#000000" opacity="1.000000" stroke="none" 
	d="
M310.430328,550.333984 
	C310.516327,558.524536 310.509460,558.291138 304.654846,558.463440 
	C300.536713,558.584656 299.613007,556.787903 299.649353,553.091187 
	C299.788452,538.959656 299.878326,524.822388 299.601318,510.694824 
	C299.508270,505.948212 301.820374,505.249084 305.638733,505.064240 
	C310.172729,504.844757 311.058472,507.497986 310.829041,511.031525 
	C309.987823,523.989929 310.600189,536.958069 310.430328,550.333984 
z"/>
<path fill="#000000" opacity="1.000000" stroke="none" 
	d="
M282.797882,505.543335 
	C290.865082,504.724609 291.298737,505.067566 291.311829,512.526794 
	C291.335419,525.980713 291.218781,539.435669 291.353333,552.888245 
	C291.393066,556.860168 290.144409,558.508667 285.920929,558.503174 
	C281.763550,558.497803 280.505249,557.031982 280.525513,552.974609 
	C280.596771,538.691284 280.337158,524.406494 280.249908,510.121948 
	C280.239044,508.345184 280.032227,506.337463 282.797882,505.543335 
z"/>
</svg>